# xmcd
#
# Track frame offsets: 
#        300
#        16345
#        44474
#        78198
#        104298
#        125016
#        149829
#        173295
#        188988
#        221071
#
# Disc length: 3269 seconds
#
# Revision: 0
# Processed by: cddbd v1.5.2PL0 Copyright (c) Steve Scherf et al.
# Submitted via: ExactAudioCopy v1.0b3
#
DISCID=8c0cc10a
DTITLE=Big Jack Johnson - All the Way Back
DYEAR=1997
DGENRE=Electric Blues
TTITLE0=Nieokreślony twórca - I Wanna Know
TTITLE1=Nieokreślony twórca - Crack Headed Woman
TTITLE2=Nieokreślony twórca - Lonely Man
TTITLE3=Nieokreślony twórca - Miss Magalee Hall
TTITLE4=Nieokreślony twórca - Can't Stop Me
TTITLE5=Nieokreślony twórca - I Can't Get No Lovin'
TTITLE6=Nieokreślony twórca - All Messed Up
TTITLE7=Nieokreślony twórca - Black Dog
TTITLE8=Nieokreślony twórca - I'm Your Oilman
TTITLE9=Nieokreślony twórca - Shake Your Bootie
EXTD=
EXTT0=
EXTT1=
EXTT2=
EXTT3=
EXTT4=
EXTT5=
EXTT6=
EXTT7=
EXTT8=
EXTT9=
PLAYORDER=
